<svg width="12" height="12" viewBox="0 0 12 12" fill="none" xmlns="http://www.w3.org/2000/svg">
<path d="M7.5 0.375C7.5 0.275544 7.53951 0.180161 7.60983 0.109835C7.68016 0.0395088 7.77554 0 7.875 0L10.875 0C10.9745 0 11.0698 0.0395088 11.1402 0.109835C11.2105 0.180161 11.25 0.275544 11.25 0.375V4.125C11.25 4.22446 11.2105 4.31984 11.1402 4.39016C11.0698 4.46049 10.9745 4.5 10.875 4.5H9.75V10.875C9.75 10.9745 9.71049 11.0698 9.64017 11.1402C9.56984 11.2105 9.47446 11.25 9.375 11.25C9.27554 11.25 9.18016 11.2105 9.10983 11.1402C9.03951 11.0698 9 10.9745 9 10.875V4.5H7.875C7.77554 4.5 7.68016 4.46049 7.60983 4.39016C7.53951 4.31984 7.5 4.22446 7.5 4.125V0.375ZM3.98925 1.5H6.75V2.25H3.98925C3.80694 2.24996 3.63085 2.31633 3.49392 2.43669C3.35699 2.55706 3.26859 2.72319 3.24525 2.904L3.039 4.5H6.81375C6.89133 4.71943 7.03506 4.9094 7.22513 5.04373C7.4152 5.17805 7.64226 5.25012 7.875 5.25H2.625C2.52554 5.25 2.43016 5.28951 2.35984 5.35984C2.28951 5.43016 2.25 5.52554 2.25 5.625V7.875C2.25 7.97446 2.28951 8.06984 2.35984 8.14017C2.43016 8.21049 2.52554 8.25 2.625 8.25H8.25V9H3.75V9.9375C3.75 10.0867 3.69074 10.2298 3.58525 10.3352C3.47976 10.4407 3.33668 10.5 3.1875 10.5C3.03832 10.5 2.89524 10.4407 2.78975 10.3352C2.68426 10.2298 2.625 10.0867 2.625 9.9375V9C2.32663 9 2.04048 8.88147 1.8295 8.6705C1.61853 8.45952 1.5 8.17337 1.5 7.875V5.625C1.49996 5.38773 1.57495 5.15652 1.71423 4.96443C1.85352 4.77234 2.04997 4.62921 2.2755 4.5555L2.283 4.5H1.875C1.77554 4.5 1.68016 4.46049 1.60984 4.39016C1.53951 4.31984 1.5 4.22446 1.5 4.125C1.5 4.02554 1.53951 3.93016 1.60984 3.85984C1.68016 3.78951 1.77554 3.75 1.875 3.75H2.37975L2.50125 2.808C2.54794 2.44624 2.72485 2.11389 2.99887 1.87314C3.27289 1.63239 3.62524 1.49974 3.99 1.5M8.0625 6.18825C8.1285 6.18825 8.19125 6.199 8.25075 6.2205V7.2795C8.16593 7.30999 8.07502 7.31959 7.98571 7.30749C7.89639 7.29539 7.81131 7.26196 7.73766 7.21001C7.66401 7.15806 7.60395 7.08914 7.56258 7.00906C7.52122 6.92899 7.49975 6.84013 7.5 6.75C7.5 6.4395 7.75125 6.18825 8.06175 6.18825M4.5 6.75C4.5 6.82377 4.48547 6.89682 4.45724 6.96497C4.42901 7.03313 4.38763 7.09505 4.33547 7.14722C4.2833 7.19938 4.22138 7.24076 4.15322 7.26899C4.08507 7.29722 4.01202 7.31175 3.93825 7.31175C3.86448 7.31175 3.79143 7.29722 3.72328 7.26899C3.65512 7.24076 3.5932 7.19938 3.54103 7.14722C3.48887 7.09505 3.44749 7.03313 3.41926 6.96497C3.39103 6.89682 3.3765 6.82377 3.3765 6.75C3.3765 6.60101 3.43568 6.45813 3.54103 6.35278C3.64638 6.24743 3.78926 6.18825 3.93825 6.18825C4.08724 6.18825 4.23012 6.24743 4.33547 6.35278C4.44082 6.45813 4.5 6.60101 4.5 6.75Z" fill="#BB8600"/>
</svg>
