<svg width="12" height="12" viewBox="0 0 12 12" fill="none" xmlns="http://www.w3.org/2000/svg">
<path d="M6 9.5V7.5L4.5 6L7 4L8 5.5H9.5M1 9C1 9.39782 1.15804 9.77936 1.43934 10.0607C1.72064 10.342 2.10218 10.5 2.5 10.5C2.89782 10.5 3.27936 10.342 3.56066 10.0607C3.84196 9.77936 4 9.39782 4 9C4 8.60218 3.84196 8.22064 3.56066 7.93934C3.27936 7.65804 2.89782 7.5 2.5 7.5C2.10218 7.5 1.72064 7.65804 1.43934 7.93934C1.15804 8.22064 1 8.60218 1 9ZM8 9C8 9.39782 8.15803 9.77936 8.43934 10.0607C8.72064 10.342 9.10217 10.5 9.5 10.5C9.89782 10.5 10.2794 10.342 10.5607 10.0607C10.842 9.77936 11 9.39782 11 9C11 8.60218 10.842 8.22064 10.5607 7.93934C10.2794 7.65804 9.89782 7.5 9.5 7.5C9.10217 7.5 8.72064 7.65804 8.43934 7.93934C8.15803 8.22064 8 8.60218 8 9ZM8 2.5C8 2.63261 8.05268 2.75979 8.14644 2.85355C8.24021 2.94732 8.36739 3 8.5 3C8.63261 3 8.75978 2.94732 8.85355 2.85355C8.94732 2.75979 9 2.63261 9 2.5C9 2.36739 8.94732 2.24021 8.85355 2.14645C8.75978 2.05268 8.63261 2 8.5 2C8.36739 2 8.24021 2.05268 8.14644 2.14645C8.05268 2.24021 8 2.36739 8 2.5Z" stroke="#049123" stroke-linecap="round" stroke-linejoin="round"/>
</svg>
